<?xml version="1.0" standalone="no"?>
<!DOCTYPE svg PUBLIC "-//W3C//DTD SVG 20010904//EN"
 "http://www.w3.org/TR/2001/REC-SVG-20010904/DTD/svg10.dtd">
<svg version="1.0" xmlns="http://www.w3.org/2000/svg"
 width="500.000000pt" height="500.000000pt" viewBox="0 0 500.000000 500.000000"
 preserveAspectRatio="xMidYMid meet">
<metadata>
Created by potrace 1.11, written by Peter Selinger 2001-2013
</metadata>
<g transform="translate(0.000000,500.000000) scale(0.100000,-0.100000)"
fill="#000000" stroke="none">
<path d="M0 2500 l0 -2500 2500 0 2500 0 0 2500 0 2500 -2500 0 -2500 0 0
-2500z m4500 0 l0 -2000 -2000 0 -2000 0 0 2000 0 2000 2000 0 2000 0 0 -2000z"/>
<path d="M620 2500 l0 -1880 1880 0 1880 0 0 1880 0 1880 -1880 0 -1880 0 0
-1880z m2278 1327 c230 -230 362 -370 362 -382 0 -28 -728 -755 -755 -755 -24
0 -755 727 -755 750 0 8 165 180 367 382 290 290 373 368 393 368 20 0 103
-77 388 -363z m352 -2002 l745 -745 -1490 0 -1490 0 745 745 c410 410 745 745
745 745 0 0 335 -335 745 -745z"/>
<path d="M2142 3807 c-193 -193 -352 -359 -352 -367 0 -20 704 -724 719 -719
17 6 721 712 721 723 0 17 -703 716 -720 716 -8 0 -174 -159 -368 -353z"/>
<path d="M1840 1809 l-665 -659 1325 0 1325 0 -660 660 c-363 363 -660 660
-660 659 0 0 -299 -297 -665 -660z"/>
</g>
</svg>
